HIERARCHY
ROOT Hips
{
  OFFSET 26.3183 84.766 -145.109
  CHANNELS 6 Xposition Yposition Zposition Zrotation Xrotation Yrotation
  JOINT Spine
  {
    OFFSET 0 0 10.6299
    CHANNELS 6 Xposition Yposition Zposition Zrotation Xrotation Yrotation
    JOINT Spine1
    {
      OFFSET 0 0 11.3827
      CHANNELS 6 Xposition Yposition Zposition Zrotation Xrotation Yrotation
      JOINT Spine2
      {
        OFFSET 0 0 11.3827
        CHANNELS 6 Xposition Yposition Zposition Zrotation Xrotation Yrotation
        JOINT Spine3
        {
          OFFSET 0 0 11.3827
          CHANNELS 6 Xposition Yposition Zposition Zrotation Xrotation Yrotation
          JOINT Neck
          {
            OFFSET 0 1.56303 11.4229
            CHANNELS 6 Xposition Yposition Zposition Zrotation Xrotation Yrotation
            JOINT Neck1
            {
              OFFSET 0 0 3.9771
              CHANNELS 6 Xposition Yposition Zposition Zrotation Xrotation Yrotation
              JOINT Head
              {
                OFFSET 0 0 3.9771
                CHANNELS 6 Xposition Yposition Zposition Zrotation Xrotation Yrotation
                End Site
                {
                  OFFSET 0 0 9.16737
                }
              }
            }
          }
          JOINT RightShoulder
          {
            OFFSET 1.85242 1.41749 6.61642
            CHANNELS 6 Xposition Yposition Zposition Zrotation Xrotation Yrotation
            JOINT RightArm
            {
              OFFSET 0 0 16.635
              CHANNELS 6 Xposition Yposition Zposition Zrotation Xrotation Yrotation
              JOINT RightForeArm
              {
                OFFSET 0 0 30.827
                CHANNELS 6 Xposition Yposition Zposition Zrotation Xrotation Yrotation
                JOINT RightHand
                {
                  OFFSET 0 0 25.511
                  CHANNELS 6 Xposition Yposition Zposition Zrotation Xrotation Yrotation
                  JOINT RightHandMiddle1
                  {
                    OFFSET 0 0 10
                    CHANNELS 6 Xposition Yposition Zposition Zrotation Xrotation Yrotation
                    End Site
                    {
                      OFFSET 0 0 0
                    }
                  }
                  JOINT RightHandThumb1
                  {
                    OFFSET 1.293 2.402 3.23
                    CHANNELS 6 Xposition Yposition Zposition Zrotation Xrotation Yrotation
                    End Site
                    {
                      OFFSET 0 0 0
                    }
                  }
                }
              }
            }
          }
          JOINT skelenton
          {
            OFFSET -3.08736 1.41749 6.61642
            CHANNELS 6 Xposition Yposition Zposition Zrotation Xrotation Yrotation
            JOINT LeftArm
            {
              OFFSET 0 0 16.635
              CHANNELS 6 Xposition Yposition Zposition Zrotation Xrotation Yrotation
              JOINT LeftForeArm
              {
                OFFSET 0 0 30.827
                CHANNELS 6 Xposition Yposition Zposition Zrotation Xrotation Yrotation
                JOINT LeftHand
                {
                  OFFSET 0 0 25.511
                  CHANNELS 6 Xposition Yposition Zposition Zrotation Xrotation Yrotation
                  JOINT LeftHandMiddle1
                  {
                    OFFSET 0 0 10
                    CHANNELS 6 Xposition Yposition Zposition Zrotation Xrotation Yrotation
                    End Site
                    {
                      OFFSET 0 0 0
                    }
                  }
                  JOINT LeftHandIndex
                  {
                    OFFSET -1.293 2.402 3.23
                    CHANNELS 6 Xposition Yposition Zposition Zrotation Xrotation Yrotation
                    End Site
                    {
                      OFFSET 0 0 0
                    }
                  }
                }
              }
            }
          }
        }
      }
    }
  }
  JOINT RightUpLeg
  {
    OFFSET 9.604 0 0
    CHANNELS 6 Xposition Yposition Zposition Zrotation Xrotation Yrotation
    JOINT RightLeg
    {
      OFFSET 0 0 -41.018
      CHANNELS 6 Xposition Yposition Zposition Zrotation Xrotation Yrotation
      JOINT RightFoot
      {
        OFFSET 0 0 -43.689
        CHANNELS 6 Xposition Yposition Zposition Zrotation Xrotation Yrotation
        JOINT RightToeBase
        {
          OFFSET 0 13.7145 0
          CHANNELS 6 Xposition Yposition Zposition Zrotation Xrotation Yrotation
          End Site
          {
            OFFSET 0 7.12858 0
          }
        }
      }
    }
  }
  JOINT LeftUpLeg
  {
    OFFSET -9.604 0 0
    CHANNELS 6 Xposition Yposition Zposition Zrotation Xrotation Yrotation
    JOINT LeftLeg
    {
      OFFSET 0 0 -41.018
      CHANNELS 6 Xposition Yposition Zposition Zrotation Xrotation Yrotation
      JOINT LeftFoot
      {
        OFFSET 0 0 -43.689
        CHANNELS 6 Xposition Yposition Zposition Zrotation Xrotation Yrotation
        JOINT LeftToeBase
        {
          OFFSET 0 13.7145 0
          CHANNELS 6 Xposition Yposition Zposition Zrotation Xrotation Yrotation
          End Site
          {
            OFFSET 0 7.12844 0
          }
        }
      }
    }
  }
}
MOTION
Frames:	4
Frame Time:	0.00833333
22.8226 85.7907 -176.432 82.9406 -12.7784 94.4798 -2.84217e-14 0 10.6299 -0.56576 2.52025 -2.79214 2.84217e-14 8.42769e-08 11.3827 -0.583825 -12.4784 -2.94348 -2.84217e-14 -3.53271e-08 11.3827 -0.344018 -6.91348 2.87246 0 7.10543e-15 11.3827 -4.77083e-15 1.39149e-15 -0 0 1.56303 11.4229 7.31304 -17.6451 -18.9233 -2.84217e-14 -2.70807e-07 3.9771 -0 -5 -0 -2.84217e-14 4.53122e-07 3.9771 16.1625 40.7906 16.7596 1.85242 1.41749 6.61642 -10.7159 -2.44943 98.5252 0 0 16.635 4.49839 -31.6094 67.8545 -2.84217e-14 0 30.827 -35.4165 -29.9084 -19.7668 0 -1.42109e-14 25.511 -5.68978 12.6472 23.7717 -2.84217e-14 0 10 3.18055e-15 3.18055e-15 3.18055e-15 1.293 2.402 3.23 -2.03135e-06 -45.264 -9.7711e-06 -3.08736 1.41749 6.61642 -10.3012 -2.3465 -92.916 0 -7.10543e-15 16.635 -7.75345 -24.547 -60.2037 -2.84217e-14 1.42109e-14 30.827 47.3935 -43.1227 36.3497 3.55271e-14 -2.84217e-14 25.511 1.50903 17.8706 -5.02129 0 2.84217e-14 10 0 0 -4.96962e-16 -1.293 2.402 3.23 1.3481e-14 -45.264 1.72987e-14 9.604 0 0 5.32052 0.98312 -7.74848 2.84217e-14 -1.77636e-15 -41.018 0.0178299 -17.5394 -0.105556 0 0 -43.689 7.06344 -16.6324 -2.77243 0 13.7145 1.77636e-14 -0.0278008 34.2622 0.176619 -9.604 0 -1.42109e-14 4.72414 0.574561 0.19854 0 0 -41.018 -0.0508879 -12.854 -0.134464 0 3.55271e-15 -43.689 -11.9519 -15.6935 4.22931 0 13.7145 1.42109e-14 -0.0744071 43.5408 0.258135 
22.9134 85.7797 -176.674 82.9469 -11.8852 94.5608 2.84217e-14 7.10543e-15 10.6299 -0.585424 2.45994 -2.71815 2.84217e-14 8.42769e-08 11.3827 -0.604153 -12.5387 -2.87476 2.84217e-14 -3.53271e-08 11.3827 -0.369244 -6.87227 2.81314 0 0 11.3827 -3.86217e-32 2.78299e-15 7.95139e-16 0 1.56303 11.4229 7.31401 -17.4674 -18.9966 2.84217e-14 -2.70807e-07 3.9771 -1.59028e-15 -5 -0 0 4.53122e-07 3.9771 16.2282 40.8948 16.7479 1.85242 1.41749 6.61642 -10.7796 -2.39994 98.469 2.84217e-14 0 16.635 4.55156 -31.2209 68.0204 -5.68434e-14 -7.10543e-15 30.827 -35.6043 -29.865 -19.8691 2.84217e-14 -1.42109e-14 25.511 -5.60209 12.5431 23.6077 0 0 10 6.36111e-15 3.18055e-15 1.19271e-15 1.293 2.402 3.23 -2.03135e-06 -45.264 -9.7711e-06 -3.08736 1.41749 6.61642 -10.3615 -2.29665 -92.8739 0 -7.10543e-15 16.635 -8.01419 -24.8509 -60.2736 -2.13163e-14 0 30.827 47.8613 -43.3241 36.9042 4.9738e-14 0 25.511 1.46334 17.8591 -4.87302 0 2.84217e-14 10 -7.65537e-32 -7.95139e-16 -5.51627e-15 -1.293 2.402 3.23 -1.28326e-14 -45.264 -1.69457e-14 9.604 0 0 5.10315 0.897257 -7.68238 2.84217e-14 1.77636e-15 -41.018 0.0180402 -17.4944 -0.105424 0 3.55271e-15 -43.689 6.66359 -16.5727 -2.79561 2.84217e-14 13.7145 1.42109e-14 -0.0275689 34.1466 0.176413 -9.604 0 -1.42109e-14 5.26221 0.884872 0.423425 0 1.77636e-15 -41.018 -0.0524702 -13.2496 -0.133141 0 1.77636e-15 -43.689 -10.783 -15.7534 4.63985 2.84217e-14 13.7145 7.10543e-15 -0.0716022 43.0812 0.252808 
23.0046 85.7706 -176.916 82.9549 -10.9782 94.6117 0 -3.55271e-15 10.6299 -0.600918 2.40798 -2.61578 -2.84217e-14 8.42769e-08 11.3827 -0.620191 -12.5906 -2.77654 0 -3.53271e-08 11.3827 -0.392914 -6.83531 2.71692 -2.84217e-14 0 11.3827 -2.20695e-32 1.59028e-15 7.95139e-16 -2.84217e-14 1.56303 11.4229 7.30891 -17.3194 -19.1131 0 -2.70807e-07 3.9771 3.97569e-16 -5 -0 0 4.53122e-07 3.9771 16.3219 41.0134 16.688 1.85242 1.41749 6.61642 -10.7997 -2.34644 98.4098 2.84217e-14 7.10543e-15 16.635 4.52831 -30.8464 68.1064 -2.84217e-14 0 30.827 -35.8773 -29.8408 -20.039 0 1.42109e-14 25.511 -5.52282 12.4343 23.4803 0 0 10 6.36111e-15 4.77083e-15 3.97569e-15 1.293 2.402 3.23 -2.03135e-06 -45.264 -9.7711e-06 -3.08736 1.41749 6.61642 -10.4791 -2.24681 -92.8412 0 -1.42109e-14 16.635 -8.25792 -25.102 -60.3588 -7.10543e-15 0 30.827 48.3943 -43.5196 37.5206 2.84217e-14 5.68434e-14 25.511 1.42296 17.8436 -4.7432 7.10543e-15 0 10 -7.95139e-16 -7.95139e-16 4.96962e-16 -1.293 2.402 3.23 -6.9142e-15 -45.264 -8.61406e-15 9.604 -3.55271e-15 0 5.02909 0.806841 -7.63941 0 -1.77636e-15 -41.018 0.0183705 -17.4611 -0.105343 0 7.10543e-15 -43.689 6.20868 -16.4913 -2.86607 2.84217e-14 13.7145 1.42109e-14 -0.0272504 34.0065 0.176137 -9.604 0 0 5.80051 1.26241 0.643837 -2.84217e-14 8.88178e-16 -41.018 -0.0534178 -13.7265 -0.126813 0 0 -43.689 -9.58425 -15.8439 5.05103 0 13.7145 2.13163e-14 -0.0689251 42.631 0.24765 
23.0898 85.7649 -177.148 82.9514 -10.0601 94.6514 2.84217e-14 0 10.6299 -0.61488 2.35962 -2.49726 0 8.42769e-08 11.3827 -0.634656 -12.6389 -2.66176 0 -3.53271e-08 11.3827 -0.416132 -6.80788 2.61105 0 0 11.3827 4.68978e-32 3.37934e-15 -7.95139e-16 0 1.56303 11.4229 7.2904 -17.2063 -19.2433 0 -2.70807e-07 3.9771 -1.39131e-16 -5 -1.59635e-15 0 4.53122e-07 3.9771 16.3965 41.1613 16.6297 1.85242 1.41749 6.61642 -10.7987 -2.30024 98.3647 2.84217e-14 0 16.635 4.47822 -30.4415 68.1424 -5.68434e-14 -7.10543e-15 30.827 -36.1813 -29.8441 -20.2458 2.84217e-14 0 25.511 -5.4571 12.3384 23.3824 -2.84217e-14 0 10 -3.18055e-15 1.59028e-15 7.95139e-16 1.293 2.402 3.23 -2.03135e-06 -45.264 -9.7711e-06 -3.08736 1.41749 6.61642 -10.6015 -2.2065 -92.8343 0 0 16.635 -8.46302 -25.3757 -60.4085 -7.10543e-15 1.42109e-14 30.827 48.9667 -43.7068 38.1747 2.84217e-14 -2.84217e-14 25.511 1.37944 17.8098 -4.60733 1.42109e-14 0 10 1.59028e-15 -1.59028e-15 -9.93923e-16 -1.293 2.402 3.23 -3.08299e-16 -45.264 -1.55336e-15 9.604 -7.10543e-15 -1.42109e-14 4.63343 0.736937 -7.47114 0 -3.55271e-15 -41.018 0.0180687 -17.4584 -0.105328 0 0 -43.689 5.62787 -16.4331 -2.92939 0 13.7145 1.42109e-14 -0.0271204 33.9161 0.175941 -9.604 0 -1.42109e-14 6.38525 1.63865 0.86351 0 -4.44089e-15 -41.018 -0.0535887 -14.2558 -0.119688 -2.84217e-14 3.55271e-15 -43.689 -8.43331 -15.9304 5.43924 0 13.7145 7.10543e-15 -0.0665195 42.2167 0.242962 
